<svg width="24" height="24" viewBox="0 0 24 24" fill="none" xmlns="http://www.w3.org/2000/svg">
  <rect width="24" height="24" rx="12" fill="#0F52BA" />
  <path d="M18.28 11.23C18.1 11.0302 17.8548 10.9222 17.595 10.9361C17.3352 10.9501 17.0938 11.0846 16.9292 11.3018C16.7646 11.5191 16.6916 11.7997 16.7273 12.0766C16.763 12.3535 16.9042 12.604 17.12 12.77C17.2525 12.8711 17.4102 12.937 17.5774 12.9618C17.7446 12.9866 17.9156 12.9694 18.0746 12.9118C18.2336 12.8543 18.3756 12.7583 18.4878 12.6325C18.6 12.5068 18.6787 12.3553 18.7159 12.1908C18.7532 12.0263 18.7478 11.8545 18.7003 11.693C18.6527 11.5315 18.5645 11.3858 18.444 11.2675C18.3235 11.1492 18.1747 11.0622 18.01 11.0145C18.1028 11.0731 18.1854 11.1475 18.2537 11.2343C18.322 11.321 18.3748 11.4187 18.4093 11.5234C18.4438 11.6281 18.4594 11.7382 18.4553 11.8487C18.4512 11.9591 18.4275 12.0674 18.3854 12.1689C18.3433 12.2704 18.2835 12.3635 18.209 12.4441C18.1345 12.5246 18.0464 12.5911 17.9491 12.6406C17.8519 12.69 17.7473 12.7213 17.64 12.7332C17.5327 12.7451 17.4247 12.7373 17.3204 12.7102C17.216 12.6831 17.1173 12.6371 17.0293 12.5746C16.896 12.4725 16.7953 12.3343 16.7402 12.1757C16.6851 12.0171 16.6782 11.845 16.7203 11.6815C16.7624 11.518 16.8518 11.3704 16.9763 11.2559C17.1008 11.1414 17.2552 11.0648 17.4205 11.0352C17.5858 11.0057 17.7552 11.0245 17.9095 11.0896C18.0639 11.1548 18.1971 11.2635 18.2935 11.4035C18.39 11.5435 18.4458 11.709 18.455 11.88C18.435 11.6438 18.3802 11.4132 18.293 11.197L18.28 11.23Z" fill="white"/>
  <path d="M9.50001 8.9C9.50001 8.47 9.55001 8.0 9.55001 7.55C9.55001 7.25 9.44001 7.1 9.13001 7.09C8.93001 7.08 8.75001 7.1 8.58001 7.18C8.42001 7.28 8.38001 7.43 8.38001 7.61C8.38001 7.76 8.38001 7.92 8.38001 8.07C8.38001 8.47 8.38001 8.86 8.31001 9.25C8.29609 9.39195 8.25538 9.53037 8.19001 9.66C8.10001 9.8 7.96001 9.84 7.82001 9.79C7.72001 9.74 7.61001 9.7 7.50001 9.68C7.02001 9.56 6.52001 9.56 6.04001 9.69C5.99001 9.7 5.96001 9.71 5.91001 9.72C5.83001 9.74 5.75001 9.72 5.70001 9.65C5.68001 9.61 5.66001 9.58 5.65001 9.54C5.55001 9.16 5.47001 8.77 5.46001 8.37C5.45001 8.05 5.46001 7.74 5.46001 7.42C5.46001 7.3 5.46001 7.19 5.46001 7.07C5.48001 6.82 5.35001 6.71 5.10001 6.75C4.95001 6.77 4.83001 6.84 4.70001 6.92C4.55001 7.02 4.49001 7.17 4.49001 7.35C4.48001 7.52 4.49001 7.69 4.49001 7.86C4.49001 8.16 4.49001 8.45 4.48001 8.75C4.44551 9.18493 4.34211 9.61145 4.17265 10.0158C4.00318 10.4201 3.76975 10.7968 3.48001 11.13C3.35001 11.29 3.19001 11.43 3.05001 11.59C2.85001 11.81 2.85001 12.1 3.05001 12.33C3.08001 12.37 3.12001 12.41 3.15001 12.45C3.38001 12.7 3.63001 12.94 3.86001 13.19C4.09001 13.45 4.30001 13.72 4.48001 14.01C4.77001 14.49 4.95001 15.01 5.06001 15.56C5.06001 15.56 5.09001 16.06 5.09001 16.07C5.09001 16.26 5.20001 16.38 5.38001 16.38C5.96001 16.38 6.54001 16.38 7.12001 16.38C7.16001 16.38 7.21001 16.38 7.25001 16.38C7.48001 16.38 7.55001 16.31 7.55001 16.07C7.55001 15.97 7.55001 15.88 7.55001 15.78C7.55001 15.55 7.55001 15.32 7.56001 15.08C7.57001 14.83 7.72001 14.69 7.97001 14.77C8.15001 14.84 8.19001 14.98 8.17001 15.16C8.17001 15.21 8.17001 15.27 8.17001 15.32C8.17001 15.61 8.17001 15.91 8.17001 16.2C8.17001 16.31 8.23001 16.38 8.34001 16.38C8.94001 16.38 9.55001 16.38 10.16 16.38C10.40998 16.38 10.5 16.29 10.5 16.04C10.5 15.86 10.47 15.68 10.44 15.5C10.265 14.4513 9.86311 13.455 9.26001 12.58C9.00001 12.19 8.67001 11.84 8.37001 11.49C8.25001 11.36 8.14001 11.21 8.04001 11.07C7.94001 10.96 7.99001 10.84 8.09001 10.78C8.28001 10.67 8.48001 10.58 8.68001 10.51C8.88001 10.44 9.08001 10.39 9.29001 10.34C9.37001 10.33 9.43001 10.28 9.46001 10.21C9.49001 10.12 9.50001 10.02 9.50001 9.92C9.5 9.62 9.50001 9.26 9.50001 8.9ZM6.34001 15.14H6.2C6.2 15.14 6.2 15.13 6.19001 15.13C6.12001 15.13 6.06001 15.13 6.00001 15.13C6.00001 15.13 5.87001 15.13 5.87001 15.13C5.80001 15.13 5.74001 15.13 5.68001 15.13C5.68001 15.13 5.65001 15.13 5.64001 15.13C5.56001 15.13 5.48001 15.14 5.41001 15.15C5.41001 15.15 5.37001 15.16 5.37001 15.17C5.33001 15.2 5.31001 15.24 5.33001 15.28C5.36001 15.37 5.39001 15.46 5.44001 15.54C5.46572 15.5828 5.5003 15.6178 5.54001 15.6417C5.57972 15.6655 5.62351 15.6775 5.67001 15.6767H6.85001C6.91 15.67 6.96001 15.64 6.98001 15.58C7.02001 15.48 7.04001 15.37 7.04001 15.27V15.19C7.04001 15.13 7.00001 15.09 6.94001 15.09L6.34001 15.14Z" fill="white"/>
  <path d="M13 7.5H11V9.5H9V11.5H11V13.5H13V11.5H15V9.5H13V7.5Z" fill="white"/>
</svg>